<svg width="900" height="420" viewBox="0 0 900 420" xmlns="http://www.w3.org/2000/svg" font-family="Arial, sans-serif">

  <!-- Background -->
  <rect width="100%" height="100%" fill="#0d1117"/>

  <!-- Boxes -->
  <rect x="40" y="160" width="120" height="60" rx="8" fill="#161b22" stroke="#30363d"/>
  <text x="100" y="195" fill="#c9d1d9" font-size="12" text-anchor="middle">User</text>

  <rect x="200" y="140" width="150" height="60" rx="8" fill="#161b22" stroke="#30363d"/>
  <text x="275" y="175" fill="#c9d1d9" font-size="12" text-anchor="middle">Telegram / Web</text>

  <rect x="400" y="140" width="150" height="60" rx="8" fill="#161b22" stroke="#30363d"/>
  <text x="475" y="175" fill="#c9d1d9" font-size="12" text-anchor="middle">Backend API</text>

  <rect x="600" y="120" width="160" height="60" rx="8" fill="#161b22" stroke="#30363d"/>
  <text x="680" y="155" fill="#c9d1d9" font-size="12" text-anchor="middle">Execution Engine</text>

  <rect x="600" y="220" width="160" height="60" rx="8" fill="#161b22" stroke="#30363d"/>
  <text x="680" y="255" fill="#c9d1d9" font-size="12" text-anchor="middle">Monitoring System</text>

  <rect x="780" y="100" width="100" height="60" rx="8" fill="#161b22" stroke="#30363d"/>
  <text x="830" y="135" fill="#c9d1d9" font-size="12" text-anchor="middle">Solana RPC</text>

  <rect x="780" y="200" width="100" height="60" rx="8" fill="#161b22" stroke="#30363d"/>
  <text x="830" y="235" fill="#c9d1d9" font-size="12" text-anchor="middle">Jupiter</text>

  <rect x="400" y="260" width="120" height="60" rx="8" fill="#161b22" stroke="#30363d"/>
  <text x="460" y="295" fill="#c9d1d9" font-size="12" text-anchor="middle">Redis</text>

  <rect x="560" y="300" width="120" height="60" rx="8" fill="#161b22" stroke="#30363d"/>
  <text x="620" y="335" fill="#c9d1d9" font-size="12" text-anchor="middle">MongoDB</text>

  <!-- Arrows -->
  <line x1="160" y1="190" x2="200" y2="170" stroke="#8b949e" stroke-width="1.5"/>
  <line x1="350" y1="170" x2="400" y2="170" stroke="#8b949e" stroke-width="1.5"/>
  <line x1="550" y1="170" x2="600" y2="150" stroke="#8b949e" stroke-width="1.5"/>
  <line x1="550" y1="170" x2="600" y2="250" stroke="#8b949e" stroke-width="1.5"/>

  <line x1="760" y1="140" x2="780" y2="130" stroke="#8b949e" stroke-width="1.5"/>
  <line x1="760" y1="250" x2="780" y2="230" stroke="#8b949e" stroke-width="1.5"/>

  <line x1="475" y1="200" x2="460" y2="260" stroke="#8b949e" stroke-width="1.5"/>
  <line x1="600" y1="300" x2="520" y2="290" stroke="#8b949e" stroke-width="1.5"/>

</svg>
